<svg width="25" height="25" viewBox="0 0 15 15" fill="none" xmlns="http://www.w3.org/2000/svg">
<path d="M15 7.5C15 3.3585 11.6415 0 7.5 0C3.3585 0 0 3.3585 0 7.5C0 11.244 2.742 14.346 6.3285 14.9085V9.6675H4.4235V7.5H6.3285V5.847C6.3285 3.9675 7.4475 2.9295 9.162 2.9295C9.9825 2.9295 10.8405 3.0765 10.8405 3.0765V4.9215H9.894C8.9625 4.9215 8.6715 5.499 8.6715 6.093V7.5H10.752L10.419 9.6675H8.6715V14.9085C12.258 14.346 15 11.2425 15 7.5Z" fill="#010201"/>
<path d="M10.419 9.6675L10.752 7.5H8.67151V6.093C8.67151 5.499 8.96251 4.9215 9.89401 4.9215H10.8405V3.0765C10.8405 3.0765 9.98251 2.9295 9.16201 2.9295C7.44901 2.9295 6.32851 3.9675 6.32851 5.847V7.5H4.42351V9.6675H6.32851V14.9085C6.70951 14.9685 7.10101 15 7.50001 15C7.89901 15 8.29051 14.9685 8.67151 14.9085V9.6675H10.419Z" fill="white"/>
</svg>
