<svg width="25" height="25" viewBox="0 0 15 15" fill="none" xmlns="http://www.w3.org/2000/svg">
<g clip-path="url(#clip0_29_207)">
<path d="M7.50075 0C11.6427 0 15.0015 3.35884 15.0015 7.50075C15.0015 11.6427 11.6427 15.0015 7.50075 15.0015C3.35884 15.0015 0 11.6427 0 7.50075C0 3.35884 3.35884 0 7.50075 0Z" fill="#010201"/>
<path d="M7.50076 2.77828C6.21813 2.77828 6.05761 2.78428 5.55356 2.80678C5.05101 2.82928 4.70748 2.91029 4.40745 3.0258C4.09692 3.14732 3.83289 3.30783 3.57186 3.57036C3.30934 3.83288 3.14732 4.09541 3.02731 4.40594C2.9103 4.70597 2.83079 5.0495 2.80829 5.55206C2.78579 6.05611 2.77979 6.21662 2.77979 7.49925C2.77979 8.78188 2.78579 8.94239 2.80829 9.44644C2.83079 9.949 2.9118 10.2925 3.02731 10.5926C3.14882 10.9031 3.30934 11.1671 3.57186 11.4281C3.83439 11.6907 4.09692 11.8527 4.40745 11.9727C4.70748 12.0897 5.05101 12.1692 5.55356 12.1917C6.05761 12.2142 6.21813 12.2202 7.50076 12.2202C8.78339 12.2202 8.9439 12.2142 9.44795 12.1917C9.9505 12.1692 10.294 12.0882 10.5941 11.9727C10.9046 11.8512 11.1686 11.6907 11.4297 11.4281C11.6922 11.1656 11.8542 10.9031 11.9742 10.5926C12.0912 10.2925 12.1707 9.949 12.1932 9.44644C12.2157 8.94239 12.2217 8.78188 12.2217 7.49925C12.2217 6.21662 12.2157 6.05611 12.1932 5.55206C12.1707 5.0495 12.0897 4.70597 11.9742 4.40594C11.8527 4.09541 11.6922 3.83138 11.4297 3.57036C11.1671 3.30783 10.9046 3.14582 10.5941 3.0258C10.294 2.90879 9.9505 2.82928 9.44795 2.80678C8.9439 2.78428 8.78339 2.77828 7.50076 2.77828ZM7.50076 3.62886C8.76238 3.62886 8.9109 3.63336 9.40895 3.65587C9.86949 3.67687 10.12 3.75338 10.2865 3.81938C10.5071 3.90489 10.6646 4.0069 10.8296 4.17192C10.9946 4.33693 11.0966 4.49445 11.1836 4.71497C11.2481 4.88149 11.3246 5.13201 11.3456 5.59256C11.3681 6.09061 11.3726 6.23912 11.3726 7.50075C11.3726 8.76238 11.3681 8.91089 11.3456 9.40894C11.3246 9.86949 11.2481 10.12 11.1836 10.2865C11.0981 10.5071 10.9946 10.6646 10.8296 10.8296C10.6646 10.9946 10.5071 11.0966 10.2865 11.1836C10.12 11.2481 9.86949 11.3246 9.40895 11.3456C8.9109 11.3681 8.76238 11.3726 7.50076 11.3726C6.23913 11.3726 6.09062 11.3681 5.59257 11.3456C5.13202 11.3246 4.8815 11.2481 4.71498 11.1836C4.49446 11.0981 4.33694 10.9946 4.17192 10.8296C4.00691 10.6646 3.9049 10.5071 3.81789 10.2865C3.75338 10.12 3.67687 9.86949 3.65587 9.40894C3.63337 8.91089 3.62887 8.76238 3.62887 7.50075C3.62887 6.23912 3.63337 6.09061 3.65587 5.59256C3.67687 5.13201 3.75338 4.88149 3.81789 4.71497C3.9034 4.49445 4.00691 4.33693 4.17192 4.17192C4.33694 4.0069 4.49446 3.90489 4.71498 3.81938C4.8815 3.75488 5.13202 3.67837 5.59257 3.65587C6.09062 3.63336 6.23913 3.62886 7.50076 3.62886Z" fill="white"/>
<path d="M7.50075 9.07441C6.63067 9.07441 5.9271 8.36934 5.9271 7.50075C5.9271 6.63066 6.63217 5.92709 7.50075 5.92709C8.37084 5.92709 9.07441 6.63216 9.07441 7.50075C9.07441 8.37084 8.36934 9.07441 7.50075 9.07441ZM7.50075 5.07501C6.16112 5.07501 5.07501 6.16112 5.07501 7.50075C5.07501 8.84038 6.16112 9.92649 7.50075 9.92649C8.84039 9.92649 9.9265 8.84038 9.9265 7.50075C9.9265 6.16112 8.84039 5.07501 7.50075 5.07501Z" fill="white"/>
<path d="M10.5881 4.979C10.5881 5.29103 10.3345 5.54606 10.021 5.54606C9.70747 5.54606 9.45395 5.29253 9.45395 4.979C9.45395 4.66547 9.70747 4.41194 10.021 4.41194C10.333 4.41194 10.5881 4.66547 10.5881 4.979Z" fill="white"/>
</g>
<defs>
<clipPath id="clip0_29_207">
<rect width="15" height="15" fill="white"/>
</clipPath>
</defs>
</svg>
